<svg width="1200" height="900" viewBox="0 0 1200 900" fill="none" xmlns="http://www.w3.org/2000/svg">
  <defs>
    <linearGradient id="bg" x1="160" y1="80" x2="1080" y2="820" gradientUnits="userSpaceOnUse">
      <stop stop-color="#121831"/>
      <stop offset="1" stop-color="#090C16"/>
    </linearGradient>
    <linearGradient id="shine" x1="300" y1="180" x2="900" y2="720" gradientUnits="userSpaceOnUse">
      <stop stop-color="#FFFFFF" stop-opacity="0.24"/>
      <stop offset="1" stop-color="#FFFFFF" stop-opacity="0"/>
    </linearGradient>
  </defs>
  <rect width="1200" height="900" rx="52" fill="url(#bg)"/>
  <rect x="80" y="80" width="1040" height="740" rx="36" fill="#0F1426" stroke="rgba(255,255,255,0.09)"/>
  <ellipse cx="600" cy="720" rx="300" ry="56" fill="#000000" fill-opacity="0.25"/>
  
      <rect x="430" y="332" width="340" height="286" rx="42" fill="#D8D4CB"/>
      <rect x="470" y="372" width="78" height="206" rx="20" fill="#B0ABA0"/>
      <rect x="564" y="372" width="78" height="206" rx="20" fill="#B0ABA0"/>
      <rect x="658" y="372" width="72" height="206" rx="20" fill="#B0ABA0"/>
      <rect x="484" y="266" width="18" height="130" rx="9" fill="#FFBE3B"/>
      <rect x="600" y="252" width="18" height="144" rx="9" fill="#8A93A9"/>
      <rect x="684" y="282" width="18" height="114" rx="9" fill="#2C334D"/>
    
  <rect x="120" y="120" width="520" height="92" rx="28" fill="url(#shine)" opacity="0.28"/>
  <text x="130" y="808" fill="#F8F8FD" font-family="Inter, Arial, sans-serif" font-size="40" font-weight="700">Drift Pen Dock</text>
  <text x="130" y="850" fill="#8C93AC" font-family="Inter, Arial, sans-serif" font-size="24">Small tool organization</text>
</svg>