<svg width="1200" height="900" viewBox="0 0 1200 900" fill="none" xmlns="http://www.w3.org/2000/svg">
  <defs>
    <linearGradient id="bg" x1="160" y1="80" x2="1080" y2="820" gradientUnits="userSpaceOnUse">
      <stop stop-color="#121831"/>
      <stop offset="1" stop-color="#090C16"/>
    </linearGradient>
    <linearGradient id="shine" x1="300" y1="180" x2="900" y2="720" gradientUnits="userSpaceOnUse">
      <stop stop-color="#FFFFFF" stop-opacity="0.24"/>
      <stop offset="1" stop-color="#FFFFFF" stop-opacity="0"/>
    </linearGradient>
  </defs>
  <rect width="1200" height="900" rx="52" fill="url(#bg)"/>
  <rect x="80" y="80" width="1040" height="740" rx="36" fill="#0F1426" stroke="rgba(255,255,255,0.09)"/>
  <ellipse cx="600" cy="720" rx="300" ry="56" fill="#000000" fill-opacity="0.25"/>
  
      <rect x="356" y="468" width="488" height="118" rx="34" fill="#3A435E"/>
      <rect x="390" y="430" width="78" height="76" rx="22" fill="#D7DDEB"/>
      <rect x="492" y="430" width="78" height="76" rx="22" fill="#D7DDEB"/>
      <rect x="594" y="430" width="78" height="76" rx="22" fill="#D7DDEB"/>
      <rect x="696" y="430" width="78" height="76" rx="22" fill="#D7DDEB"/>
      <path d="M428 388c0-34 30-66 64-66h80" stroke="#FFBE3B" stroke-width="20" stroke-linecap="round"/>
      <path d="M728 388c0-34-30-66-64-66h-52" stroke="#8C95B0" stroke-width="18" stroke-linecap="round"/>
    
  <rect x="120" y="120" width="520" height="92" rx="28" fill="url(#shine)" opacity="0.28"/>
  <text x="130" y="808" fill="#F8F8FD" font-family="Inter, Arial, sans-serif" font-size="40" font-weight="700">Route Cable Dock</text>
  <text x="130" y="850" fill="#8C93AC" font-family="Inter, Arial, sans-serif" font-size="24">Cable management</text>
</svg>