<svg width="1200" height="900" viewBox="0 0 1200 900" fill="none" xmlns="http://www.w3.org/2000/svg">
  <defs>
    <linearGradient id="bg" x1="160" y1="80" x2="1080" y2="820" gradientUnits="userSpaceOnUse">
      <stop stop-color="#121831"/>
      <stop offset="1" stop-color="#090C16"/>
    </linearGradient>
    <linearGradient id="shine" x1="300" y1="180" x2="900" y2="720" gradientUnits="userSpaceOnUse">
      <stop stop-color="#FFFFFF" stop-opacity="0.24"/>
      <stop offset="1" stop-color="#FFFFFF" stop-opacity="0"/>
    </linearGradient>
  </defs>
  <rect width="1200" height="900" rx="52" fill="url(#bg)"/>
  <rect x="80" y="80" width="1040" height="740" rx="36" fill="#0F1426" stroke="rgba(255,255,255,0.09)"/>
  <ellipse cx="600" cy="720" rx="300" ry="56" fill="#000000" fill-opacity="0.25"/>
  <rect x="224" y="254" width="752" height="306" rx="38" fill="#232A45"/><rect x="260" y="296" width="260" height="166" rx="28" fill="#2F3855"/><rect x="568" y="316" width="354" height="42" rx="14" fill="#E5E9F3"/><rect x="568" y="386" width="290" height="22" rx="11" fill="#7E86A0"/><rect x="568" y="432" width="232" height="22" rx="11" fill="#7E86A0"/><rect x="568" y="492" width="188" height="58" rx="18" fill="#FFBE3B"/>
  <rect x="120" y="120" width="520" height="92" rx="28" fill="url(#shine)" opacity="0.28"/>
  <text x="130" y="808" fill="#F8F8FD" font-family="Inter, Arial, sans-serif" font-size="40" font-weight="700">WorkNest</text>
  <text x="130" y="850" fill="#8C93AC" font-family="Inter, Arial, sans-serif" font-size="24">Premium desk setup commerce experience</text>
</svg>